<svg xmlns="http://www.w3.org/2000/svg" viewBox="698.0 867.5 1104.0 1104.0" fill="currentColor" role="img" aria-label="skixO" xmlns:c2pa="http://c2pa.org/manifest"><metadata><c2pa:manifest>AAAWgmp1bWIAAAAeanVtZGMycGEAEQAQgAAAqgA4m3EDYzJwYQAAABZcanVtYgAAAEdqdW1kYzJtYQARABCAAACqADibcQN1cm46YzJwYTo0ODgxMDIyOC0xZjMxLTQ4NzgtODYxZS05YjYwYzkxMzU2NjIAAAADl2p1bWIAAAApanVtZGMyYXMAEQAQgAAAqgA4m3EDYzJwYS5hc3NlcnRpb25zAAAAALxqdW1iAAAARGp1bWRjYm9yABEAEIAAAKoAOJtxE2MycGEuaW5ncmVkaWVudC52MwAAAAAYYzJzaNMelrij+8Yb8NGA2XmPAeMAAABwY2JvcqNpZGM6Zm9ybWF0bWltYWdlL3N2Zyt4bWxqaW5zdGFuY2VJRHgseG1wOmlpZDoyOWZkYjQyZi0zYzhiLTQyNTItOTAxNS0yMzM5NGMwYWVhODlscmVsYXRpb25zaGlwaHBhcmVudE9mAAAB4mp1bWIAAABBanVtZGNib3IAEQAQgAAAqgA4m3ETYzJwYS5hY3Rpb25zLnYyAAAAABhjMnNoSbIxWkPOA47ydM1RCkdoEAAAAZljYm9yomdhY3Rpb25zgqJmYWN0aW9ua2MycGEub3BlbmVkanBhcmFtZXRlcnOha2luZ3JlZGllbnRzgaJjdXJseC1zZWxmI2p1bWJmPWMycGEuYXNzZXJ0aW9ucy9jMnBhLmluZ3JlZGllbnQudjNkaGFzaFggDg3kpurnDMiITyyP7cetal84kdG41yhckG89cj9sbaOkZmFjdGlvbngdY29tLmFudGhyb3BpYy5jbGF1ZGUucHJvdmlkZWRqcGFyYW1ldGVyc6F4H2NvbS5hbnRocm9waWMub3JpZ2luLWNvbmZpZGVuY2VndW5rbm93bmtkZXNjcmlwdGlvbnhmQ2xhdWRlIHByb3ZpZGVkIHRoaXMgZmlsZSBhdCB0aGUgcmVxdWVzdCBvZiBhIHVzZXIgYW5kIG1heSBoYXZlIGNyZWF0ZWQgb3IgbW9kaWZpZWQgdGhlIGZpbGUgY29udGVudHMubXNvZnR3YXJlQWdlbnShZG5hbWVmQ2xhdWRlcmFsbEFjdGlvbnNJbmNsdWRlZPUAAADIanVtYgAAAEBqdW1kY2JvcgARABCAAACqADibcRNjMnBhLmhhc2guZGF0YQAAAAAYYzJzaCW1Sff/eDZrvhRA6dJXmEIAAACAY2JvcqVjYWxnZnNoYTI1NmNwYWRNAAAAAAAAAAAAAAAAAGRoYXNoWCCm1/Crd2uh67tFgn2B0WmQdnRK5uS17jN6vaa/mTMZwGRuYW1lbmp1bWJmIG1hbmlmZXN0amV4Y2x1c2lvbnOBomVzdGFydBi9Zmxlbmd0aBkeBAAAAj5qdW1iAAAAJ2p1bWRjMmNsABEAEIAAAKoAOJtxA2MycGEuY2xhaW0udjIAAAACD2Nib3KlY2FsZ2ZzaGEyNTZpc2lnbmF0dXJleE1zZWxmI2p1bWJmPS9jMnBhL3VybjpjMnBhOjQ4ODEwMjI4LTFmMzEtNDg3OC04NjFlLTliNjBjOTEzNTY2Mi9jMnBhLnNpZ25hdHVyZWppbnN0YW5jZUlEeCx4bXA6aWlkOjIyYzAzNjQ3LTExMjAtNDdhMC05M2Y1LTc0ZGM1NWI5NjEwMXJjcmVhdGVkX2Fzc2VydGlvbnODomN1cmx4LXNlbGYjanVtYmY9YzJwYS5hc3NlcnRpb25zL2MycGEuaW5ncmVkaWVudC52M2RoYXNoWCAODeSm6ucMyIhPLI/tx61qXziR0bjXKFyQbz1yP2xto6JjdXJseCpzZWxmI2p1bWJmPWMycGEuYXNzZXJ0aW9ucy9jMnBhLmFjdGlvbnMudjJkaGFzaFgg/UYjLgENQhuZ4eTQCqd07zN2JlSQCiyNGFAgMiZDhU6iY3VybHgpc2VsZiNqdW1iZj1jMnBhLmFzc2VydGlvbnMvYzJwYS5oYXNoLmRhdGFkaGFzaFggWs5rmRpynuyt10A1L3rOpoB2NB5s/I3pFWZJXtpiXn10Y2xhaW1fZ2VuZXJhdG9yX2luZm+jZG5hbWVvQW50aHJvcGljIEZpbGVzZ3ZlcnNpb25lMS4wLjBrc3BlY1ZlcnNpb25lMi40LjAAABA4anVtYgAAAChqdW1kYzJjcwARABCAAACqADibcQNjMnBhLnNpZ25hdHVyZQAAABAIY2JvctKEWQISogEmGCFZAgowggIGMIIBjaADAgECAhRA5aAK7sI50L64g/oGQgU9Z1UTADAKBggqhkjOPQQDAzBJMRcwFQYDVQQKEw5BbnRocm9waWMsIFBCQzEuMCwGA1UEAxMlQW50aHJvcGljIENvbnRlbnQgQ3JlZGVudGlhbHMgUm9vdCBDQTAeFw0yNjA4MDcxODQzNTZaFw0yODA4MDYxOTQzNTZaMEQxFzAVBgNVBAoTDkFudGhyb3BpYywgUEJDMSkwJwYDVQQDEyBBbnRocm9waWMgQ2xhdWRlIENvbnRlbnQgU2lnbmluZzBZMBMGByqGSM49AgEGCCqGSM49AwEHA0IABJh6CmvLUBgFFNU0vUKlOVtE6djd17L5SuwX0LemFisBM3dkd/3cyjxFA3Qo5S46fX0/ihY0VZ7mfb9KF703t5OjWDBWMA4GA1UdDwEB/wQEAwIHgDAVBgNVHSUEDjAMBgorBgEEAYPoXgIBMAwGA1UdEwEB/wQCMAAwHwYDVR0jBBgwFoAUzlHiBIFOZFsj+OPEz5o+nMHXXMIwCgYIKoZIzj0EAwMDZwAwZAIwMXMdFJ4BetLLVY7ORuE9noqbbAZOZn/aArXyTwFAZfKrPzxF2vPoJNf1+UCdg1XGAjBwX1zd9WGqYkqmL5SFqw1QySjr1zJfpJM9+1rdDwSPLMOPOjKuiXjoU/pUUeG9RwmhY3BhZFkNngAAAAAAAAAAAAAAAAAAAAAAAAAAAAAAAAAAAAAAAAAAAAAAAAAAAAAAAAAAAAAAAAAAAAAAAAAAAAAAAAAAAAAAAAAAAAAAAAAAAAAAAAAAAAAAAAAAAAAAAAAAAAAAAAAAAAAAAAAAAAAAAAAAAAAAAAAAAAAAAAAAAAAAAAAAAAAAAAAAAAAAAAAAAAAAAAAAAAAAAAAAAAAAAAAAAAAAAAAAAAAAAAAAAAAAAAAAAAAAAAAAAAAAAAAAAAAAAAAAAAAAAAAAAAAAAAAAAAAAAAAAAAAAAAAAAAAAAAAAAAAAAAAAAAAAAAAAAAAAAAAAAAAAAAAAAAAAAAAAAAAAAAAAAAAAAAAAAAAAAAAAAAAAAAAAAAAAAAAAAAAAAAAAAAAAAAAAAAAAAAAAAAAAAAAAAAAAAAAAAAAAAAAAAAAAAAAAAAAAAAAAAAAAAAAAAAAAAAAAAAAAAAAAAAAAAAAAAAAAAAAAAAAAAAAAAAAAAAAAAAAAAAAAAAAAAAAAAAAAAAAAAAAAAAAAAAAAAAAAAAAAAAAAAAAAAAAAAAAAAAAAAAAAAAAAAAAAAAAAAAAAAAAAAAAAAAAAAAAAAAAAAAAAAAAAAAAAAAAAAAAAAAAAAAAAAAAAAAAAAAAAAAAAAAAAAAAAAAAAAAAAAAAAAAAAAAAAAAAAAAAAAAAAAAAAAAAAAAAAAAAAAAAAAAAAAAAAAAAAAAAAAAAAAAAAAAAAAAAAAAAAAAAAAAAAAAAAAAAAAAAAAAAAAAAAAAAAAAAAAAAAAAAAAAAAAAAAAAAAAAAAAAAAAAAAAAAAAAAAAAAAAAAAAAAAAAAAAAAAAAAAAAAAAAAAAAAAAAAAAAAAAAAAAAAAAAAAAAAAAAAAAAAAAAAAAAAAAAAAAAAAAAAAAAAAAAAAAAAAAAAAAAAAAAAAAAAAAAAAAAAAAAAAAAAAAAAAAAAAAAAAAAAAAAAAAAAAAAAAAAAAAAAAAAAAAAAAAAAAAAAAAAAAAAAAAAAAAAAAAAAAAAAAAAAAAAAAAAAAAAAAAAAAAAAAAAAAAAAAAAAAAAAAAAAAAAAAAAAAAAAAAAAAAAAAAAAAAAAAAAAAAAAAAAAAAAAAAAAAAAAAAAAAAAAAAAAAAAAAAAAAAAAAAAAAAAAAAAAAAAAAAAAAAAAAAAAAAAAAAAAAAAAAAAAAAAAAAAAAAAAAAAAAAAAAAAAAAAAAAAAAAAAAAAAAAAAAAAAAAAAAAAAAAAAAAAAAAAAAAAAAAAAAAAAAAAAAAAAAAAAAAAAAAAAAAAAAAAAAAAAAAAAAAAAAAAAAAAAAAAAAAAAAAAAAAAAAAAAAAAAAAAAAAAAAAAAAAAAAAAAAAAAAAAAAAAAAAAAAAAAAAAAAAAAAAAAAAAAAAAAAAAAAAAAAAAAAAAAAAAAAAAAAAAAAAAAAAAAAAAAAAAAAAAAAAAAAAAAAAAAAAAAAAAAAAAAAAAAAAAAAAAAAAAAAAAAAAAAAAAAAAAAAAAAAAAAAAAAAAAAAAAAAAAAAAAAAAAAAAAAAAAAAAAAAAAAAAAAAAAAAAAAAAAAAAAAAAAAAAAAAAAAAAAAAAAAAAAAAAAAAAAAAAAAAAAAAAAAAAAAAAAAAAAAAAAAAAAAAAAAAAAAAAAAAAAAAAAAAAAAAAAAAAAAAAAAAAAAAAAAAAAAAAAAAAAAAAAAAAAAAAAAAAAAAAAAAAAAAAAAAAAAAAAAAAAAAAAAAAAAAAAAAAAAAAAAAAAAAAAAAAAAAAAAAAAAAAAAAAAAAAAAAAAAAAAAAAAAAAAAAAAAAAAAAAAAAAAAAAAAAAAAAAAAAAAAAAAAAAAAAAAAAAAAAAAAAAAAAAAAAAAAAAAAAAAAAAAAAAAAAAAAAAAAAAAAAAAAAAAAAAAAAAAAAAAAAAAAAAAAAAAAAAAAAAAAAAAAAAAAAAAAAAAAAAAAAAAAAAAAAAAAAAAAAAAAAAAAAAAAAAAAAAAAAAAAAAAAAAAAAAAAAAAAAAAAAAAAAAAAAAAAAAAAAAAAAAAAAAAAAAAAAAAAAAAAAAAAAAAAAAAAAAAAAAAAAAAAAAAAAAAAAAAAAAAAAAAAAAAAAAAAAAAAAAAAAAAAAAAAAAAAAAAAAAAAAAAAAAAAAAAAAAAAAAAAAAAAAAAAAAAAAAAAAAAAAAAAAAAAAAAAAAAAAAAAAAAAAAAAAAAAAAAAAAAAAAAAAAAAAAAAAAAAAAAAAAAAAAAAAAAAAAAAAAAAAAAAAAAAAAAAAAAAAAAAAAAAAAAAAAAAAAAAAAAAAAAAAAAAAAAAAAAAAAAAAAAAAAAAAAAAAAAAAAAAAAAAAAAAAAAAAAAAAAAAAAAAAAAAAAAAAAAAAAAAAAAAAAAAAAAAAAAAAAAAAAAAAAAAAAAAAAAAAAAAAAAAAAAAAAAAAAAAAAAAAAAAAAAAAAAAAAAAAAAAAAAAAAAAAAAAAAAAAAAAAAAAAAAAAAAAAAAAAAAAAAAAAAAAAAAAAAAAAAAAAAAAAAAAAAAAAAAAAAAAAAAAAAAAAAAAAAAAAAAAAAAAAAAAAAAAAAAAAAAAAAAAAAAAAAAAAAAAAAAAAAAAAAAAAAAAAAAAAAAAAAAAAAAAAAAAAAAAAAAAAAAAAAAAAAAAAAAAAAAAAAAAAAAAAAAAAAAAAAAAAAAAAAAAAAAAAAAAAAAAAAAAAAAAAAAAAAAAAAAAAAAAAAAAAAAAAAAAAAAAAAAAAAAAAAAAAAAAAAAAAAAAAAAAAAAAAAAAAAAAAAAAAAAAAAAAAAAAAAAAAAAAAAAAAAAAAAAAAAAAAAAAAAAAAAAAAAAAAAAAAAAAAAAAAAAAAAAAAAAAAAAAAAAAAAAAAAAAAAAAAAAAAAAAAAAAAAAAAAAAAAAAAAAAAAAAAAAAAAAAAAAAAAAAAAAAAAAAAAAAAAAAAAAAAAAAAAAAAAAAAAAAAAAAAAAAAAAAAAAAAAAAAAAAAAAAAAAAAAAAAAAAAAAAAAAAAAAAAAAAAAAAAAAAAAAAAAAAAAAAAAAAAAAAAAAAAAAAAAAAAAAAAAAAAAAAAAAAAAAAAAAAAAAAAAAAAAAAAAAAAAAAAAAAAAAAAAAAAAAAAAAAAAAAAAAAAAAAAAAAAAAAAAAAAAAAAAAAAAAAAAAAAAAAAAAAAAAAAAAAAAAAAAAAAAAAAAAAAAAAAAAAAAAAAAAAAAAAAAAAAAAAAAAAAAAAAAAAAAAAAAAAAAAAAAAAAAAAAAAAAAAAAAAAAAAAAAAAAAAAAAAAAAAAAAAAAAAAAAAAAAAAAAAAAAAAAAAAAAAAAAAAAAAAAAAAAAAAAAAAAAAAAAAAAAAAAAAAAAAAAAAAAAAAAAAAAAAAAAAAAAAAAAAAAAAAAAAAAAAAAAAAAAAAAAAAAAAAAAAAAAAAAAAAAAAAAAAAAAAAAAAAAAAAAAAAAAAAAAAAAAAAAAAAAAAAAAAAAAAAAAAAAAAAAAAAAAAAAAAAAAAAAAAAAAAAAAAAAAAAAAAAAAAAAAAAAAAAAAAAAAAAAAAAAAAAAAAAAAAAAAAAAAAAAAAAAAAAAAAAAAAAAAAAAAAAAAAAAAAAAAAAAAAAAAAAAAAAAAAAAAAAAAAAAAAAAAAAAAAAAAAAAAAAAAAAAAAAAAAAAAAAAAAAAAAAAAAAAAAAAAAAAAAAAAAAAAAAAAAAAAAAAAAAAAAAAAAAAAAAAAAAAAAAAAAAAAAAAAAAAAAAAAAAAAAAAAAAAAAAAAAAAAAAAAAAAAAAAAAAAAAAAAAAAAAAAAAAAAAAAAAAAAAAAAAAAAAAAAAAAAAAAAAAAAAAAAAAAAAAAAAAAAAAAAAAAAAAAAAAAAAAAAAAAAAAAAAAAAAAAAAAAAAAAAAAAAAAAAAAAAAAAAAAAAAAAAAAAAAAAAAAAAAAAAAAAAAAAAAAAAAAAAAAAAAAAAAAAAAAAAAAAAAAAAAAAAAAAAAAAAAAAAAAAAAAAAAAAAAAAAAAAAAAAAAAAAAAAAAAAAAAAAAAAAAAAAAAAAAAAAAAAAAAAAAAAAAAAAAAAAAAAAAAAAAAAAAAAAAAAAAAAAAAAAAAAAAAAAAAAAAAAAAAAAAAAAAAAAAAAAAAAAAAAAAAAAAAAAAAAAAAAAAAAAAAAAAAAAAAAAAAAAAAAAAAAAAAAAAAAAAAAAAAAAAAAAAAAAAAAAAAAAAAAAAAAAAAAAAAAAAAAAAAAAAAAAAAAAAAAAAAAAAAAAAAAAAAAAAAAAAAAAAAAAAAAAAAAAAAAAAAAAAAAAAAAAAAAAAAAAAAAAAAAAAAAAAAAAAAAAAAAAAAAAAAAAAAAAAAAAAAAAAAAAAAAAAAAAAAAAAAAAAAAAAAAAAAAAAAAAAAAAAAAAAAAAAAAAAAAAAAAAAAAAAAAAAAAAAAAAAAAAAAAAAAAAAAAAAAAAAAAAAAAAAAAAAAAAAAAAAAAAAAAAAAAAAAAAAAAAAAAAAAAAAAAAAAAAAAAAAAAAAAAAAAAAAAAAAAAAAAAAAAAAAAAAAAAAAAAAAAAAAAAAAAAAAAAAAAAAAAAAAAAAAAAAAAAAAAAAAAAAAAAAAAAAAAAAAAAAAAAAAAAAAAAAAAAAAAAAAAAAAAAAAAAAAAAAAAAAAAAAAAAAAAAAPZYQCnAHFExshM/ACS0eF+NQ6vH535RHDLnyfUtPEyhzrjYEqBKWDqMJB/2knJ1+8YCDKmHYL16vLySbiVGRPMVHkc=</c2pa:manifest></metadata><path d="M0 0 C0.849 0.204 1.698 0.407 2.573 0.617 C23.525 5.773 43.791 14.231 63 24 C63.798 24.403 64.597 24.807 65.419 25.223 C88.228 36.877 109.794 51.44 129.875 67.312 C130.459 67.773 131.043 68.234 131.644 68.709 C146.981 80.885 161.27 94.047 175 108 C174.34 108.66 173.68 109.32 173 110 C172.037 109.639 171.075 109.277 170.083 108.905 C107.777 85.563 43.234 62.813 -24.125 62.75 C-24.503 62.749 -24.503 62.749 -26.418 62.747 C-80.815 62.795 -134.285 75.821 -187 88 C-187 87.01 -187 86.02 -187 85 C-185.07 83.073 -183.159 81.355 -181.062 79.625 C-180.438 79.101 -179.813 78.577 -179.17 78.038 C-148.388 52.461 -114.25 31.104 -75.75 19.5 C-74.595 19.149 -73.44 18.799 -72.25 18.437 C-66.682 16.817 -61.808 15.53 -56 16 C-56 15.01 -56 14.02 -56 13 C-56.981 12.758 -57.962 12.515 -58.973 12.266 C-68.343 9.942 -77.68 7.517 -87 5 C-87 4.34 -87 3.68 -87 3 C-57.911 -4.355 -29.508 -7.247 0 0 Z " transform="translate(955,1094)"/><path d="M0 0 C0 0.99 0 1.98 0 3 C-3.789 4.145 -7.579 5.284 -11.371 6.418 C-13.294 6.995 -15.217 7.575 -17.139 8.156 C-18.347 8.517 -19.556 8.878 -20.801 9.25 C-21.916 9.585 -23.032 9.92 -24.181 10.266 C-27 11 -27 11 -30 11 C-30 11.99 -30 12.98 -30 14 C-29.33 14.044 -28.66 14.088 -27.969 14.133 C-21.218 14.65 -14.858 15.719 -8.312 17.438 C-7.822 17.566 -7.822 17.566 -5.342 18.217 C31.801 28.471 65.969 49.645 95.103 74.394 C96.408 75.499 97.723 76.593 99.046 77.677 C99.688 78.209 100.33 78.741 100.992 79.289 C101.571 79.763 102.149 80.237 102.746 80.725 C104 82 104 82 104 84 C94.811 82.036 85.666 79.932 76.547 77.667 C48.629 70.744 20.628 65.137 -8 62 C-8.771 61.913 -9.542 61.826 -10.337 61.736 C-24.792 60.134 -39.136 59.657 -53.675 59.684 C-57.167 59.687 -60.658 59.664 -64.15 59.639 C-85.842 59.577 -107.219 61.801 -128.562 65.625 C-129.252 65.747 -129.941 65.869 -130.651 65.995 C-153.812 70.137 -176.742 76.395 -199 84 C-199.731 84.249 -200.461 84.498 -201.214 84.754 C-206.129 86.439 -211.028 88.165 -215.923 89.906 C-218.856 90.949 -221.789 91.988 -224.723 93.026 C-249.547 101.81 -249.547 101.81 -261 106 C-261 101.96 -259.531 101.043 -256.812 98.125 C-255.986 97.234 -255.16 96.344 -254.309 95.426 C-251.911 92.907 -249.491 90.426 -247 88 C-246.515 87.493 -246.031 86.987 -245.531 86.465 C-241.22 82.001 -236.562 78.119 -231.727 74.234 C-229.4 72.328 -227.198 70.362 -225 68.312 C-211.709 56.433 -196.48 46.845 -181.376 37.479 C-179.393 36.245 -177.422 34.995 -175.457 33.73 C-165.66 27.508 -155.347 22.237 -145 17 C-144.44 16.716 -144.44 16.716 -141.605 15.281 C-96.997 -6.217 -47.988 -15.274 0 0 Z " transform="translate(1628,1097)"/><path d="M0 0 C-0.705 0.704 -1.41 1.408 -2.137 2.133 C-4.042 4.038 -5.94 5.95 -7.832 7.867 C-13.379 13.475 -18.971 18.908 -25 24 C-26.049 24.9 -27.097 25.801 -28.145 26.703 C-31.158 29.296 -34.178 31.881 -37.201 34.462 C-38.361 35.454 -39.52 36.446 -40.678 37.44 C-48.942 44.53 -57.392 51.334 -66 58 C-67.082 58.842 -68.164 59.685 -69.246 60.527 C-82.234 70.61 -95.494 80.171 -109.261 89.162 C-111.502 90.626 -113.738 92.098 -115.973 93.57 C-125.181 99.618 -134.518 105.393 -144 111 C-145.784 112.072 -147.566 113.146 -149.348 114.223 C-157.69 119.25 -166.048 124.225 -174.531 129.012 C-177.032 130.445 -179.505 131.9 -181.969 133.395 C-191.661 139.253 -201.552 144.25 -211.834 148.986 C-214.905 150.424 -217.918 151.958 -220.938 153.5 C-228.996 157.567 -237.24 161.209 -245.486 164.875 C-248.138 166.062 -250.782 167.266 -253.426 168.473 C-278.769 179.994 -304.329 189.078 -332 193 C-332.694 193.102 -333.388 193.205 -334.103 193.31 C-351.475 195.581 -370.767 195 -388 192 C-388.937 191.844 -389.873 191.688 -390.838 191.527 C-448.437 181.788 -504.272 157.131 -554 127 C-554.979 126.409 -555.958 125.818 -556.967 125.209 C-571.279 116.556 -585.358 107.677 -599 98 C-599.387 97.726 -599.387 97.726 -601.343 96.34 C-611.059 89.432 -620.61 82.344 -630 75 C-631.139 74.119 -632.278 73.239 -633.418 72.359 C-640.084 67.192 -646.579 61.867 -652.954 56.345 C-656.482 53.29 -660.055 50.306 -663.688 47.375 C-668.438 43.519 -672.966 39.461 -677.465 35.316 C-679.526 33.433 -681.617 31.614 -683.75 29.812 C-690.528 23.946 -696.705 17.375 -703 11 C-702.67 10.34 -702.34 9.68 -702 9 C-701.048 9.356 -700.096 9.712 -699.115 10.079 C-617.892 40.405 -535.9 64.06 -362 75 C-360.733 74.987 -359.466 74.975 -358.161 74.962 C-292.454 74.157 -226.822 64.698 -163.166 48.549 C-160.953 47.988 -158.738 47.43 -156.524 46.872 C-115.087 36.426 -74.333 24.323 -33.875 10.562 C-33.01 10.27 -32.146 9.977 -31.255 9.675 C-22.431 6.679 -13.734 3.652 -5.254 -0.235 C-3 -1 -3 -1 0 0 Z " transform="translate(1608,1555)"/></svg>